<svg version="1.1" id="Layer_1" xmlns="http://www.w3.org/2000/svg" xmlns:xlink="http://www.w3.org/1999/xlink" x="0px" y="0px"
	 width="100%" viewBox="0 0 912 672" enable-background="new 0 0 912 672" xml:space="preserve">
<path fill="#000000" opacity="1.000000" stroke="none" 
	d="
M547.000000,381.231567 
	C501.846710,381.222931 457.193359,381.234467 412.540192,381.153381 
	C410.009155,381.148804 406.586273,382.487793 405.802124,378.093414 
	C404.611328,371.419952 405.714752,368.286102 410.178467,366.572876 
	C416.239685,364.246582 422.288055,361.879303 428.407196,359.714111 
	C432.765137,358.172089 434.688629,355.320892 434.684265,350.691528 
	C434.626709,289.876373 434.616730,229.061111 434.671753,168.245941 
	C434.675781,163.806610 433.104950,162.068375 428.467804,162.161118 
	C415.643433,162.417648 402.809814,162.330414 389.981415,162.210464 
	C385.115875,162.164963 382.149414,164.031143 380.929199,168.900314 
	C379.919891,172.927856 378.338104,176.808716 377.215912,180.812271 
	C376.370239,183.829163 374.718353,185.177444 371.488129,185.078659 
	C365.828644,184.905594 360.159668,185.019821 354.494904,185.055908 
	C351.638428,185.074097 350.354095,184.034882 350.430786,180.872787 
	C350.753876,167.549713 350.967621,154.220749 350.946381,140.894363 
	C350.938995,136.254211 352.421173,134.574341 357.307648,134.584488 
	C426.953308,134.729095 496.599426,134.731033 566.245117,134.591263 
	C571.087769,134.581543 572.462219,136.044540 572.458862,140.815994 
	C572.449707,153.800720 572.886658,166.789612 573.370667,179.768494 
	C573.517578,183.709015 572.089905,185.160736 568.216064,185.024048 
	C562.891174,184.836151 557.551208,184.881210 552.223755,185.035843 
	C549.025208,185.128662 547.339355,183.822205 546.509216,180.746155 
	C545.382812,176.572372 543.856750,172.508087 542.646912,168.354691 
	C541.463562,164.292633 538.939819,162.253494 534.654358,162.262680 
	C520.991943,162.291977 507.328827,162.313797 493.667145,162.200623 
	C490.435455,162.173843 489.266174,163.384933 489.276886,166.608673 
	C489.360962,191.934189 489.337830,217.260071 489.329498,242.585846 
	C489.328796,244.767776 489.563049,246.747437 492.407074,246.644455 
	C502.031128,246.295944 511.737549,247.838608 521.275574,245.699005 
	C529.987061,243.744827 536.441650,239.120514 538.843750,229.961609 
	C540.276428,224.499268 544.817627,227.081329 548.070679,226.810379 
	C551.630859,226.513840 551.220398,229.500366 551.224487,231.770950 
	C551.255615,248.932419 551.258057,266.093994 551.223755,283.255463 
	C551.219299,285.502533 551.700745,288.549469 548.117615,288.229950 
	C544.879639,287.941254 540.352234,290.612213 538.853394,285.161316 
	C535.638733,273.470154 526.642944,269.450989 515.917725,268.495392 
	C508.477905,267.832489 500.932526,268.409058 493.436340,268.296722 
	C490.475922,268.252350 489.282776,269.364899 489.290894,272.402496 
	C489.359802,298.227875 489.350647,324.053589 489.301971,349.879059 
	C489.296722,352.663605 490.410553,353.720001 493.173248,353.705994 
	C507.002075,353.635864 520.831421,353.670135 534.660583,353.673828 
	C538.661011,353.674896 541.263245,351.804260 542.461182,347.965790 
	C543.799622,343.677124 545.377563,339.450378 546.462097,335.099701 
	C547.241882,331.971588 548.769531,330.634277 552.014282,330.727386 
	C557.508118,330.884979 563.014648,330.911987 568.506348,330.720245 
	C572.259094,330.589203 573.464600,332.179108 573.350830,335.775024 
	C572.913635,349.589508 572.595093,363.408508 572.354919,377.227936 
	C572.300659,380.347229 570.781006,381.252563 567.989746,381.231537 
	C561.160217,381.180054 554.329956,381.225342 547.000000,381.231567 
z"/>
<path fill="#000000" opacity="1.000000" stroke="none" 
	d="
M650.078308,261.002716 
	C633.959778,280.089508 618.036499,298.871399 602.219849,317.742706 
	C600.010803,320.378357 598.218201,320.662415 595.654541,318.320343 
	C592.094055,315.067566 588.451843,311.872223 584.595825,308.984589 
	C581.294983,306.512665 581.170959,304.542542 583.897827,301.361786 
	C595.051880,288.351257 605.819336,275.007812 617.045654,262.061401 
	C620.390930,258.203552 620.705872,255.713654 617.165039,251.662949 
	C605.887329,238.761276 595.153687,225.385651 584.036438,212.340912 
	C581.446289,209.301712 581.148499,207.232697 584.539612,204.675308 
	C588.518616,201.674637 592.254089,198.339432 595.982483,195.022675 
	C598.146484,193.097610 599.757446,192.972031 601.771423,195.364838 
	C618.273499,214.970764 634.816589,234.542816 651.475464,254.015427 
	C654.112366,257.097717 652.052002,258.733337 650.078308,261.002716 
z"/>
<path fill="#000000" opacity="1.000000" stroke="none" 
	d="
M324.216095,198.237976 
	C329.321228,192.364502 329.318542,192.367630 335.113434,197.353027 
	C337.890045,199.741730 340.511017,202.358307 343.505432,204.434799 
	C347.124969,206.944748 347.181274,209.005951 344.305817,212.354279 
	C333.354340,225.106812 322.697388,238.111908 311.884674,250.984207 
	C307.074890,256.710144 307.041412,256.655487 311.699158,262.244904 
	C322.676666,275.418243 333.555847,288.675049 344.669678,301.732239 
	C347.081696,304.565948 347.120697,306.331177 344.183624,308.599792 
	C340.235291,311.649475 336.371887,314.841217 332.737549,318.254639 
	C330.098938,320.732849 328.354950,320.229034 326.204742,317.680969 
	C309.885193,298.341705 293.544250,279.019684 277.058685,259.822174 
	C274.286163,256.593536 276.324188,254.774567 278.148346,252.619553 
	C293.421356,234.576431 308.703033,216.540634 324.216095,198.237976 
z"/>
<path fill="#000000" opacity="1.000000" stroke="none" 
	d="
M530.219360,579.000000 
	C530.219910,585.996582 530.184082,592.493530 530.235718,598.989685 
	C530.261169,602.198486 530.167542,604.905273 525.750610,605.142334 
	C518.283630,605.543213 517.269104,605.154419 516.325867,599.456543 
	C515.395203,600.437134 514.656250,601.262268 513.868652,602.037964 
	C509.002106,606.831116 502.894012,606.282654 499.045349,600.618286 
	C496.851044,597.388733 495.881073,593.687683 495.358490,589.849976 
	C494.159332,581.043640 494.081512,572.248230 496.129028,563.567505 
	C497.217743,558.951660 498.935730,554.415405 504.161346,552.985291 
	C509.377411,551.557678 513.146057,554.088745 516.715698,559.722412 
	C516.715698,552.317993 516.854553,546.416016 516.665161,540.524597 
	C516.545837,536.813782 518.042480,535.628845 521.667664,535.614868 
	C530.187500,535.581970 530.202026,535.431458 530.213684,544.017944 
	C530.229309,555.511963 530.218506,567.005981 530.219360,579.000000 
M517.618469,577.694397 
	C517.132996,574.757629 516.784668,571.788879 516.111328,568.895813 
	C515.698120,567.120361 514.857178,565.288147 512.548523,565.356750 
	C510.587280,565.414978 509.594421,566.856384 509.230621,568.562195 
	C507.727966,575.607849 507.669067,582.679871 509.311157,589.711304 
	C509.700653,591.379150 510.709290,592.954773 512.605225,592.981812 
	C514.804504,593.013245 515.808716,591.166992 516.148926,589.371887 
	C516.825012,585.804565 517.155762,582.171875 517.618469,577.694397 
z"/>
<path fill="#000000" opacity="1.000000" stroke="none" 
	d="
M477.233368,547.333618 
	C472.721252,546.835266 471.150421,548.469910 471.263550,552.686890 
	C471.574402,564.273926 470.087708,562.497864 480.964020,562.695435 
	C483.680206,562.744751 486.780884,561.880737 486.680206,566.594299 
	C486.526764,573.777710 486.412354,574.209534 480.883423,574.290588 
	C470.295471,574.445801 471.414703,572.700806 471.328735,583.877014 
	C471.326172,584.209778 471.328125,584.542542 471.328064,584.875305 
	C471.326447,592.752991 471.326416,592.752991 479.110687,592.757690 
	C486.497498,592.762146 488.691132,595.928162 486.280182,602.900574 
	C485.555847,604.995361 483.914948,605.059448 482.280060,605.072205 
	C475.292969,605.126953 468.305023,605.062439 461.317780,605.102783 
	C458.140839,605.121094 456.863556,603.553467 456.870575,600.478699 
	C456.916626,580.347534 456.930664,560.216125 456.915100,540.084839 
	C456.912720,537.002869 458.106445,535.566833 461.381714,535.640686 
	C468.199707,535.794373 475.034882,535.930847 481.841003,535.608887 
	C486.602417,535.383606 486.870941,538.100037 486.884949,541.577942 
	C486.899414,545.170349 486.256592,547.932434 481.677246,547.352844 
	C480.367432,547.187073 479.018402,547.331177 477.233368,547.333618 
z"/>
<path fill="#000000" opacity="1.000000" stroke="none" 
	d="
M616.435669,554.054565 
	C625.787781,558.869080 626.138672,567.695679 627.203186,576.074463 
	C627.837097,581.063416 627.051270,586.058350 625.980347,590.932434 
	C623.852417,600.616882 617.820557,605.760132 608.731384,605.950439 
	C599.715393,606.139221 593.799255,601.174744 591.338074,591.238220 
	C589.427856,583.526184 589.393677,575.723938 591.046936,568.001709 
	C593.873779,554.797180 602.844666,549.834473 616.435669,554.054565 
M613.213196,572.323914 
	C613.063477,571.509583 612.879150,570.699768 612.770325,569.880005 
	C612.389465,567.012085 611.916870,563.571716 608.394348,563.715820 
	C604.992065,563.855042 604.821106,567.355347 604.225403,570.162415 
	C602.855957,576.615356 603.286438,583.009888 604.414307,589.404114 
	C604.832642,591.775452 605.810303,594.297852 608.498901,594.340271 
	C611.228455,594.383423 612.169556,591.874512 612.619141,589.485840 
	C613.634705,584.089600 614.049377,578.656799 613.213196,572.323914 
z"/>
<path fill="#000000" opacity="1.000000" stroke="none" 
	d="
M339.324097,606.097473 
	C328.855743,603.566528 325.174255,599.275940 323.589020,588.990906 
	C322.588379,582.498840 322.707001,576.110352 323.631592,569.632568 
	C325.257416,558.242065 331.305573,552.529114 341.980042,552.675232 
	C351.923767,552.811401 358.649323,559.201233 359.151764,570.329895 
	C359.796875,584.619080 360.451721,581.949707 348.446991,582.228516 
	C346.117432,582.282654 343.781281,582.148621 341.455963,582.261536 
	C339.290741,582.366638 336.359833,581.470581 336.281464,585.173828 
	C336.207581,588.664612 335.885406,592.550903 339.731018,594.346252 
	C342.543121,595.659058 344.519775,593.876953 345.481689,591.189514 
	C347.980865,584.207092 352.461517,589.359863 355.766571,589.826843 
	C360.066864,590.434570 357.481873,593.738220 356.737885,595.677002 
	C353.775696,603.396301 347.584747,606.187012 339.324097,606.097473 
M338.128326,564.622559 
	C337.023407,566.137939 336.375122,567.795471 336.318970,569.704956 
	C336.219818,573.075989 338.649200,572.970825 340.785156,572.771545 
	C342.958252,572.568848 346.220734,574.152893 346.581970,570.062500 
	C347.012146,565.191772 343.576141,562.630310 338.128326,564.622559 
z"/>
<path fill="#000000" opacity="1.000000" stroke="none" 
	d="
M301.408691,604.976196 
	C298.076813,603.629700 298.844147,601.008606 298.835480,598.806396 
	C298.777100,583.989807 298.698303,569.171570 298.874023,554.356812 
	C298.923981,550.142517 298.184723,547.608826 293.188629,548.175293 
	C287.704285,548.796997 288.798889,544.625671 288.670898,541.446960 
	C288.543457,538.280273 288.484009,535.488403 293.128448,535.614380 
	C301.945496,535.853516 310.775848,535.811279 319.596039,535.642822 
	C324.308563,535.552856 323.982788,538.654358 323.949066,541.689697 
	C323.914246,544.826721 324.435883,548.678955 319.475098,548.132202 
	C314.146912,547.545044 313.123260,549.926758 313.216949,554.740417 
	C313.495575,569.052246 313.315369,583.373169 313.298279,597.690552 
	C313.289398,605.122192 313.273926,605.126709 305.847931,605.139526 
	C304.516876,605.141846 303.185730,605.090637 301.408691,604.976196 
z"/>
<path fill="#000000" opacity="1.000000" stroke="none" 
	d="
M391.251709,553.672852 
	C394.466370,553.900696 397.326447,553.128967 400.484924,554.485657 
	C399.247864,559.401062 396.837341,563.843262 394.184326,567.885559 
	C389.663910,574.773071 389.442810,580.971863 393.910004,588.008911 
	C396.973602,592.834900 398.835724,598.423523 401.238159,603.678406 
	C392.311157,607.336731 388.032074,605.594910 385.096558,597.488403 
	C383.969055,594.374756 382.980286,591.210815 381.803558,587.697266 
	C380.541351,591.177917 379.478058,594.366272 378.236694,597.483643 
	C374.957642,605.718201 371.398041,607.185059 361.641113,603.815674 
	C364.475861,597.997131 366.886200,592.008545 370.188538,586.560669 
	C373.579254,580.966919 373.787292,576.110413 370.310272,570.451050 
	C367.306793,565.562378 365.305756,560.057739 362.417694,553.875183 
	C367.883087,554.086792 373.141052,551.613220 376.437439,555.243408 
	C379.252686,558.343750 379.994934,563.326416 381.870392,568.017273 
	C383.346588,564.077942 384.673340,560.578918 385.967896,557.067993 
	C386.803314,554.802307 388.207275,553.396729 391.251709,553.672852 
z"/>
<path fill="#000000" opacity="1.000000" stroke="none" 
	d="
M410.250092,601.455811 
	C408.188232,596.709961 408.171448,592.013916 408.029297,587.384644 
	C407.840332,581.232300 408.000153,575.069946 407.937653,568.912598 
	C407.919708,567.144592 408.021729,565.484436 406.027435,564.184021 
	C401.686066,561.353149 401.900116,556.525513 406.343689,553.437317 
	C408.619904,551.855408 408.023499,549.547974 407.950317,547.537720 
	C407.726257,541.382385 412.126190,542.937439 415.544312,542.696594 
	C419.136902,542.443542 421.877838,542.927490 421.384796,547.642822 
	C421.066742,550.684814 421.056946,553.341003 425.456238,554.176819 
	C428.238953,554.705444 427.637329,562.859497 424.612091,563.773987 
	C421.585266,564.688904 421.293030,566.423523 421.324921,568.945435 
	C421.402832,575.102356 421.352539,581.260864 421.355927,587.418762 
	C421.357452,590.212463 421.896088,592.400024 424.927368,593.833374 
	C428.705048,595.619568 426.795776,599.367065 426.728516,602.288757 
	C426.668427,604.898682 424.446686,605.242371 422.339355,605.270142 
	C418.032928,605.326904 413.554047,605.928711 410.250092,601.455811 
z"/>
<path fill="#000000" opacity="1.000000" stroke="none" 
	d="
M565.843445,576.029358 
	C565.833557,573.040955 565.853516,570.545044 565.804199,568.050537 
	C565.774719,566.562012 565.626221,565.287659 564.110107,564.213562 
	C559.439941,560.904724 559.628052,556.902710 564.475525,553.357544 
	C566.530212,551.854797 565.895142,549.696838 565.760864,547.862366 
	C565.323181,541.881409 569.432251,542.789917 573.055237,542.692017 
	C576.623169,542.595703 579.861389,542.555115 579.382019,547.710205 
	C579.131653,550.403259 578.648010,553.208496 582.876282,554.110046 
	C585.459351,554.660889 585.110901,562.906860 582.364502,563.782288 
	C579.235779,564.779602 579.318115,566.769287 579.330444,569.150757 
	C579.357971,574.473999 579.323669,579.797607 579.343750,585.120972 
	C579.357300,588.711853 578.906433,591.984558 583.260925,594.376404 
	C585.883179,595.816772 584.505310,600.241028 584.022766,603.252747 
	C583.655701,605.544373 581.240784,605.190125 579.462769,605.285645 
	C570.234436,605.781494 567.398804,603.701782 566.354858,594.452698 
	C565.686523,588.532166 565.981201,582.502930 565.843445,576.029358 
z"/>
<path fill="#000000" opacity="1.000000" stroke="none" 
	d="
M637.376099,604.860718 
	C634.874756,604.186096 634.742188,602.518555 634.741272,600.802490 
	C634.733582,586.500305 634.834961,572.197083 634.675415,557.896606 
	C634.621643,553.080872 637.737183,553.561035 640.711487,553.705139 
	C643.585144,553.844360 647.576843,552.420166 647.310181,557.785461 
	C647.230103,559.397339 647.297852,561.016479 647.297852,563.749817 
	C649.708374,558.927429 651.679321,555.091309 656.067688,553.431152 
	C660.184814,551.873535 661.654907,552.702026 661.932617,556.984985 
	C662.039978,558.641296 661.942383,560.309998 661.970459,561.972534 
	C662.016174,564.675659 661.157776,566.119385 658.022156,566.416138 
	C650.551025,567.123291 648.346436,569.789001 648.261658,577.444763 
	C648.186218,584.262451 648.238037,591.081543 648.222595,597.900024 
	C648.207031,604.790466 648.093872,604.904297 641.309082,604.979736 
	C640.145874,604.992676 638.982056,604.956360 637.376099,604.860718 
z"/>
<path fill="#000000" opacity="1.000000" stroke="none" 
	d="
M540.111511,567.015076 
	C540.106995,564.686523 540.100830,562.855164 540.098511,561.023743 
	C540.088989,553.583740 540.100220,553.861450 547.560730,553.570435 
	C552.314209,553.385132 553.492554,555.244080 553.419739,559.648315 
	C553.199585,572.964050 553.095215,586.291504 553.436218,599.601807 
	C553.570740,604.852783 550.923401,605.261536 546.981934,605.149170 
	C543.406128,605.047302 540.104553,605.666138 540.288208,599.963074 
	C540.636108,589.159241 540.213928,578.330566 540.111511,567.015076 
z"/>
<path fill="#000000" opacity="1.000000" stroke="none" 
	d="
M546.208130,535.127869 
	C551.242493,535.531311 554.089661,538.058594 554.015503,542.746887 
	C553.960938,546.196960 551.774719,548.617065 548.199036,549.216064 
	C544.239563,549.879395 541.308716,548.345215 539.989624,544.478271 
	C538.603943,540.415710 540.691162,537.233948 546.208130,535.127869 
z"/>
</svg>